<svg width="130" height="87" viewBox="0 0 130 87" fill="none" xmlns="http://www.w3.org/2000/svg">
<path d="M64.5847 75.4396C64.5847 71.9838 67.359 69.2149 70.8202 69.2149C74.276 69.2149 77.0449 71.9838 77.0449 75.4396C77.0477 76.2581 76.8887 77.069 76.5769 77.8258C76.2652 78.5826 75.8069 79.2703 75.2283 79.8493C74.6498 80.4283 73.9625 80.8872 73.206 81.1996C72.4495 81.512 71.6387 81.6718 70.8202 81.6697C70.0012 81.6732 69.1897 81.5147 68.4323 81.2032C67.6749 80.8918 66.9865 80.4336 66.407 79.855C65.8274 79.2764 65.368 78.5889 65.0552 77.832C64.7425 77.0752 64.5826 76.2639 64.5847 75.4449M89.9343 75.4449C89.9343 71.9838 92.7086 69.2095 96.1644 69.2095C99.6202 69.2095 102.394 71.9838 102.394 75.4396C102.394 78.8954 99.6202 81.6697 96.1697 81.6697C95.3508 81.6732 94.5393 81.5147 93.7818 81.2032C93.0244 80.8918 92.3361 80.4336 91.7565 79.855C91.1769 79.2764 90.7176 78.5889 90.4048 77.832C90.0921 77.0752 89.9322 76.2639 89.9343 75.4449M31.1752 75.4449C31.1752 71.9838 33.9495 69.2095 37.4053 69.2095C40.8611 69.2095 43.63 71.9838 43.63 75.4396C43.63 78.8954 40.8611 81.6697 37.4053 81.6697C36.5868 81.6725 35.7759 81.5134 35.0191 81.2017C34.2623 80.8899 33.5746 80.4316 32.9956 79.8531C32.4166 79.2746 31.9577 78.5873 31.6452 77.8308C31.3328 77.0743 31.1731 76.2634 31.1752 75.4449M5.82567 75.4449C5.82567 71.9838 8.59995 69.2095 12.0557 69.2095C15.5115 69.2095 18.2858 71.9838 18.2858 75.4396C18.2886 76.2585 18.1294 77.0699 17.8173 77.8271C17.5053 78.5842 17.0465 79.2721 16.4674 79.8512C15.8883 80.4303 15.2004 80.8891 14.4432 81.2012C13.6861 81.5133 12.8747 81.6725 12.0557 81.6697C11.2377 81.6718 10.4273 81.5122 9.67114 81.2001C8.91496 80.8881 8.22791 80.4296 7.64947 79.8512C7.07103 79.2728 6.6126 78.5857 6.30053 77.8295C5.98847 77.0734 5.82891 76.263 5.83103 75.4449M57.0775 64.4337H51.6577V86.2362H57.0775V64.4337ZM18.2429 86.2362H23.6627V64.4337H18.2429V66.183C16.3537 64.8682 14.1052 64.1674 11.8035 64.1761C5.56809 64.1761 0.534668 69.2095 0.534668 75.4449C0.534668 81.7126 5.56809 86.7084 11.8035 86.7084C14.1915 86.7084 16.4077 85.984 18.2429 84.7015V86.2362V86.2362ZM102.352 86.2362H107.771V64.4337H102.352V66.183C100.462 64.8682 98.2139 64.1674 95.9122 64.1761C89.6767 64.1761 84.6433 69.2095 84.6433 75.4449C84.6383 76.9259 84.9265 78.3933 85.4911 79.7624C86.0557 81.1315 86.8857 82.3754 87.9331 83.4224C88.9806 84.4694 90.2249 85.2987 91.5943 85.8627C92.9637 86.4267 94.4312 86.7141 95.9122 86.7084C98.3001 86.7084 100.516 85.984 102.352 84.7015V86.2362V86.2362ZM109.778 79.1529C109.95 83.5532 113.706 86.6655 119.974 86.6655C125.099 86.6655 129.322 84.4439 129.322 79.5393C129.322 76.1264 127.401 74.1195 122.963 73.2609L119.507 72.5848C117.285 72.1555 115.751 71.7262 115.751 70.4061C115.751 68.9573 117.243 68.3134 119.121 68.3134C121.857 68.3134 122.963 69.6817 123.049 71.3023H128.511C128.211 67.0362 124.798 64.1761 119.292 64.1761C113.62 64.1761 110.245 67.2884 110.245 71.3452C110.245 76.2928 114.259 77.1031 117.715 77.747L120.575 78.2568C122.625 78.6431 123.521 79.2388 123.521 80.4354C123.521 81.5033 122.496 82.5658 120.06 82.5658C116.518 82.5658 115.37 80.7306 115.327 79.1529H109.778V79.1529ZM43.5925 57.0069V66.183C41.7032 64.8682 39.4548 64.1674 37.1531 64.1761C30.9177 64.1761 25.8842 69.2095 25.8842 75.4449C25.8842 81.7126 30.9177 86.7084 37.1531 86.7084C39.5357 86.7084 41.7572 85.984 43.5925 84.7015V86.2362H49.0122V57.0069H43.5925V57.0069ZM77.0019 57.0069V66.183C75.1127 64.8682 72.8643 64.1674 70.5626 64.1761C64.3325 64.1761 59.2937 69.2095 59.2937 75.4449C59.2888 76.9259 59.5769 78.3933 60.1415 79.7624C60.7061 81.1315 61.5361 82.3754 62.5836 83.4224C63.631 84.4694 64.8753 85.2987 66.2447 85.8627C67.6141 86.4267 69.0816 86.7141 70.5626 86.7084C72.9505 86.7084 75.1667 85.984 77.0019 84.7015V86.2362H82.4217V57.0069H77.0019V57.0069ZM14.6154 50.5676L18.2858 57.0069H43.5925L33.5632 39.6797L14.6207 50.5622L14.6154 50.5676ZM57.0775 62.4267V57.0069H77.0019L55.7521 20.2221L36.7614 31.1046L51.6577 57.0069V62.4267H57.0775V62.4267ZM85.0726 57.0069H110.417L77.6459 0.292358L58.6981 11.2178L85.0726 57.0069V57.0069Z" fill="black"/>
</svg>
