<svg width="126" height="23" viewBox="0 0 126 23" fill="none" xmlns="http://www.w3.org/2000/svg">
<path fill-rule="evenodd" clip-rule="evenodd" d="M107.633 1.12264L108.587 1.15605C109.24 1.15605 109.717 1.18144 109.985 1.22286C110.26 1.26495 110.461 1.34847 110.595 1.45738C110.772 1.58298 110.888 1.8008 110.93 2.09344C110.964 2.39477 110.988 2.98006 110.988 3.85865V16.7663L98.1802 0.562745H91.3632V1.12331H93.9656L94.5582 1.51617V19.8959C94.5582 19.9373 94.5502 19.9874 94.5429 20.0288C94.5355 20.0703 94.5262 20.1043 94.5262 20.1291C94.4594 20.8493 94.3164 21.3411 94.1073 21.6103C93.8988 21.8689 93.3463 21.9952 92.451 21.9705H89.7824L81.5089 0.236023H81.0486L79.9956 3.17248L74.1314 19.5017C74.0312 19.803 73.9216 20.0796 73.8381 20.3055C73.7545 20.5393 73.663 20.7491 73.5782 20.9161C73.3109 21.4433 72.9935 21.7607 72.6167 21.8609C72.3241 21.9364 71.8557 21.9785 71.2036 21.9785V21.9705H68.0086V1.12264H71.2043V0.562077H64.8129L58.0955 17.0677L50.915 0.562077H44.7829V1.12264H47.5523L47.8449 1.71661V19.962C47.8449 20.7738 47.7026 21.3257 47.4187 21.593C47.1341 21.8682 46.5822 21.9952 45.7711 21.9698H44.6586V22.5297H51.8691V21.9698L50.9157 22.0025C49.703 22.0025 48.9828 21.8014 48.7489 21.3918C48.5231 20.9896 48.4055 20.3803 48.4055 19.5678V19.3019V19.042C48.3818 18.949 48.3705 18.8533 48.3721 18.7574V2.93796L56.6456 22.1034L64.8102 2.24377V21.9705H61.6479V22.5303H77.5596V21.9705L76.5393 22.0032C75.7449 22.0032 75.1837 21.9277 74.8416 21.7947C74.5062 21.6524 74.3311 21.3925 74.3311 21.0498C74.3311 20.9415 74.3639 20.7651 74.43 20.5239C74.4982 20.2814 74.5984 19.946 74.7233 19.5358L76.2373 15.3532H83.7498L86.2841 21.9705H82.9969V22.5303H98.5056V22.0032C96.8419 22.0032 95.8464 21.8609 95.5357 21.5595C95.2357 21.2669 95.0761 20.2386 95.0761 18.4815V2.10947L111.289 22.6967H111.481V3.89206C111.481 3.05555 111.497 2.51169 111.515 2.24377C111.532 1.98453 111.608 1.76672 111.716 1.61639C111.733 1.61639 111.757 1.59969 111.765 1.58299C111.78 1.55853 111.797 1.53587 111.816 1.5155C111.924 1.36517 112.109 1.26495 112.376 1.22286C112.636 1.18144 113.096 1.13934 113.756 1.12264H114.676V0.562077H107.632V1.12264H107.633ZM79.9943 14.792H76.4384L79.894 5.0466L79.9943 5.30583L83.5487 14.7927H79.9943V14.792ZM125.913 1.12264V0.562077H116.235V1.12264H119.421V21.9705H116.235V22.5303H125.913V21.9705H122.717V1.12264H125.913ZM42.5914 22.0366C42.4491 22.078 42.3241 22.1034 42.2146 22.1034C42.1478 22.1201 42.0809 22.1375 42.0141 22.1375H41.7876C41.0687 22.1375 40.5917 21.7019 40.3825 20.8493C40.1734 19.9961 40.0311 19.0079 39.9389 17.8868C39.9222 17.7786 39.8975 17.669 39.8888 17.5608C39.8801 17.4525 39.8721 17.3349 39.8721 17.2267C39.8148 16.465 39.7115 15.7075 39.5627 14.9584C39.4204 14.2314 39.1699 13.6361 38.8184 13.1771C38.3842 12.5832 37.7975 12.1322 37.0786 11.8228C36.3597 11.5121 35.3134 11.2616 33.9497 11.0692C34.0172 11.0692 34.0754 11.0605 34.1335 11.0525C34.1915 11.0421 34.2503 11.0365 34.3092 11.0358C35.874 10.8186 37.2958 10.3416 38.5926 9.62198C39.8888 8.89372 40.5329 7.60555 40.5329 5.76551C40.5329 3.90007 39.8888 2.59454 38.6093 1.86761C37.3292 1.13132 35.9154 0.713075 34.376 0.62889C34.2381 0.605175 34.0983 0.593992 33.9584 0.595481C33.8241 0.595481 33.6825 0.578781 33.5569 0.562077H22.1959V1.12264H25.3909V21.9705H20.0459L11.7804 0.236023H11.3207L10.2664 3.17248L4.40215 19.5017C4.29324 19.803 4.19302 20.0796 4.10951 20.3055C4.02599 20.5393 3.93379 20.7491 3.84225 20.9161C3.58302 21.4433 3.26498 21.7607 2.88882 21.8609C2.52068 21.9537 1.85923 21.9952 0.913818 21.9705V22.5303H7.82367V21.9705L6.80276 22.0032C6.01636 22.0032 5.4558 21.9277 5.11371 21.7947C4.77029 21.6524 4.60326 21.3925 4.60326 21.0498C4.60326 20.9415 4.63667 20.7651 4.70348 20.5239C4.76161 20.2814 4.86249 19.946 4.99612 19.5358L6.51012 15.3532H14.0233L16.5582 21.9705H13.2623V22.5303H32.0095V21.9705H28.6134V11.3284L29.9015 11.3625C31.0895 11.3625 32.085 11.4366 32.8801 11.5963C33.9003 11.7894 34.6032 12.1155 34.9713 12.5671C35.6241 13.3695 36.0758 14.792 36.3183 16.8332C36.3604 17.0931 36.4018 17.3603 36.4185 17.6276C36.4439 17.8875 36.4766 18.1641 36.5187 18.4474C36.6944 20.0462 37.096 21.176 37.7234 21.8114C38.3421 22.4381 39.3543 22.7642 40.7347 22.7642C41.0861 22.7642 41.4121 22.7488 41.7048 22.7148C41.9974 22.6807 42.2901 22.6145 42.5747 22.531C42.709 22.531 42.8346 22.5063 42.9595 22.4642C43.088 22.4189 43.2137 22.3658 43.3357 22.3052L43.1353 21.8696C42.9174 21.9364 42.733 21.9952 42.5914 22.0366V22.0366ZM10.2664 14.792H6.71122L10.1661 5.0466L10.2664 5.30583L13.8215 14.7927H10.2664V14.792ZM31.3146 10.7431C30.8543 10.7845 30.3859 10.8099 29.9256 10.8186C29.4739 10.8273 29.0309 10.8273 28.6127 10.8019V1.12264L29.7672 1.15605C31.0307 1.15605 32.0676 1.19747 32.8794 1.28967C33.3645 1.34847 33.766 1.41528 34.084 1.4988C34.9372 1.73331 35.6401 2.2097 36.184 2.93796C36.3851 3.1972 36.5601 3.51523 36.7025 3.89206C36.8448 4.2602 36.9624 4.63636 37.0459 5.01319C37.0626 5.18022 37.0873 5.36396 37.1127 5.54035C37.1294 5.70738 37.1461 5.87441 37.1461 6.0341C37.1461 7.78194 36.5354 8.98725 35.3141 9.62332C34.544 10.0222 33.7257 10.3202 32.8794 10.5099C32.3689 10.6262 31.8498 10.701 31.3146 10.7431V10.7431Z" fill="black"/>
</svg>
