<svg width="118" height="23" viewBox="0 0 118 23" fill="none" xmlns="http://www.w3.org/2000/svg">
<path fill-rule="evenodd" clip-rule="evenodd" d="M73.9768 22.1308C73.7029 22.1943 72.245 22.3713 72.0479 22.0773C71.9998 22.0072 71.6878 20.0609 71.7506 18.1895C71.782 17.2267 71.7699 16.3821 71.7192 15.6599C71.6554 14.7713 71.6627 14.0706 71.6679 13.572C71.6755 12.8384 71.6786 12.5425 71.4439 12.7295L70.2132 13.717C68.9317 14.7459 67.9268 15.2249 67.1932 15.1588C66.6469 15.1097 66.0134 14.3817 65.4002 13.6771L65.4002 13.677L65.4001 13.6769C65.1037 13.3363 64.8121 13.0012 64.5374 12.7508C64.3176 12.5517 64.1472 12.5223 64.0229 12.6633L62.5731 14.3129C61.8542 15.1321 61.2849 15.3973 60.8767 15.1127C60.8102 15.0672 60.7548 15.0061 60.6995 14.9453C60.6753 14.9186 60.6511 14.8921 60.6261 14.8668C60.1229 14.3646 59.7333 13.861 59.4208 13.457C58.928 12.8199 58.6269 12.4306 58.3738 12.6854L56.5498 14.5334C55.3245 15.7721 54.7552 15.2049 54.2347 14.629C53.6978 14.0304 53.3512 13.538 53.0959 13.1754L53.0958 13.1754L53.0958 13.1753C52.6726 12.5742 52.5005 12.3297 52.1288 12.5497C52.0165 12.6179 51.6404 12.8858 51.0003 13.3595C50.7733 13.5277 50.512 13.7354 50.2384 13.9527C49.4366 14.5897 48.5299 15.3101 48.0745 15.3659C47.3686 15.4564 46.9063 14.8766 46.5565 14.4377C46.3795 14.2157 46.2313 14.0298 46.0949 13.9849C45.8293 13.8953 45.6695 14.0374 45.4146 14.2641C45.0743 14.5667 44.5646 15.02 43.4076 15.2744C41.7847 15.6312 40.387 14.8775 40.0122 13.8492C39.9952 13.8018 39.9845 13.7416 39.9733 13.679C39.9338 13.4564 39.8889 13.2039 39.5358 13.3896C39.457 13.4307 39.3186 13.5412 39.134 13.6888C38.4875 14.2053 37.2737 15.1751 36.0628 15.2042C35.1749 15.2256 34.8709 15.2183 33.9883 14.0263C33.8829 13.8838 33.7947 13.7277 33.7065 13.5716C33.6012 13.3853 33.4958 13.1988 33.3609 13.0348C33.0285 12.6375 32.8313 12.8437 32.651 13.0321C32.6345 13.0493 32.6182 13.0664 32.6019 13.0829C32.5657 13.1194 32.504 13.2005 32.42 13.3108L32.42 13.3109C31.9563 13.9202 30.8141 15.4209 29.5498 15.2229C29.0314 15.1408 28.6378 14.6904 28.3726 13.864C28.0345 12.811 27.9303 10.8654 28.0566 8.02713L28.2557 3.59873C28.2765 3.16551 28.6989 3.18329 29.3188 3.20939C29.4332 3.2142 29.5543 3.2193 29.6808 3.2219C29.8184 3.22454 29.943 3.22464 30.0554 3.22473C30.6524 3.2252 30.9029 3.22539 30.9068 3.60607C30.9086 3.6835 30.9015 3.76122 30.8944 3.83903C30.8908 3.87807 30.8872 3.91712 30.8848 3.95618C30.8262 4.95915 30.8468 5.19769 30.8749 5.52305L30.8749 5.52308C30.8831 5.61732 30.8918 5.71884 30.8995 5.84834C30.936 6.43426 30.932 7.02217 30.9281 7.61043V7.61044V7.61046V7.61051V7.61057C30.9251 8.04455 30.9222 8.47872 30.9355 8.9124C30.989 10.568 31.0571 11.4633 31.1347 11.6023C31.2075 11.7333 31.295 11.7553 31.3926 11.6651L32.7716 10.391C33.5814 9.64468 34.1673 9.22643 34.5274 9.14358C35.2851 8.96479 35.5653 9.41802 35.7255 9.67708C35.7443 9.70748 35.7615 9.73521 35.7775 9.75893C35.8486 9.86307 35.9443 10.0791 36.0627 10.3462L36.0627 10.3462L36.0627 10.3462C36.4947 11.3215 37.2282 12.9771 38.1654 12.3493L40.8433 10.5447C42.4602 9.4576 43.9562 8.98055 45.3325 9.11418C46.0574 9.185 45.7214 9.53978 45.5316 9.66606C45.519 9.67438 45.4806 9.69084 45.4222 9.71585C44.9505 9.9179 43.1758 10.6781 43.1871 12.215C43.1972 13.7243 45.1307 13.5833 45.6218 12.1736C45.674 12.0251 45.7043 11.8084 45.7377 11.5706C45.8415 10.8299 45.9741 9.8839 46.8819 10.1545C47.1325 10.23 47.5774 10.6502 48.2095 11.4139C48.2925 11.5154 48.3775 11.6436 48.4644 11.7746C48.7131 12.1497 48.9773 12.5481 49.2551 12.4114C49.2925 12.3936 49.3233 12.367 49.3539 12.3405C49.3614 12.3341 49.3688 12.3276 49.3764 12.3213C49.3844 12.3146 49.3925 12.3081 49.4008 12.3019C49.6266 12.1282 49.8323 11.9289 50.038 11.7296C50.1956 11.5769 50.3532 11.4241 50.5199 11.2829C50.8898 10.9681 51.2749 10.6126 51.6387 10.2768L51.6387 10.2768C52.3087 9.65828 52.9063 9.10665 53.2025 8.99926C53.7036 8.81953 54.1171 9.12086 54.18 9.20104L56.1476 11.5869C56.33 11.8134 56.4757 11.8569 56.5852 11.7206L58.3484 9.53644C59.0874 8.62243 60.0195 8.96251 60.3301 9.36139L62.0018 11.5208C62.2076 11.7907 62.3826 11.8375 62.5263 11.6618L64.2775 9.50972C64.677 9.02131 65.122 8.82889 65.6124 8.93846C65.9482 9.01162 67.0898 10.1947 67.9809 11.1183L67.9812 11.1185L67.9812 11.1186L67.9813 11.1187C68.5386 11.6963 68.9979 12.1723 69.1007 12.2117C69.5263 12.3767 70.1918 11.8388 71.1011 10.6014C71.2436 10.4076 71.3628 10.1978 71.4818 9.98853L71.4819 9.98846C71.6303 9.72746 71.7783 9.46714 71.9704 9.23912C71.9876 9.2182 72.0038 9.19746 72.0198 9.17704L72.0198 9.17698C72.1949 8.95281 72.3396 8.7676 73.4804 8.82087C74.4081 8.86118 74.4 9.08591 74.3686 9.95295V9.95308V9.95323C74.364 10.0777 74.3591 10.2153 74.3563 10.3676C74.3489 10.8834 74.3616 11.1413 74.3957 11.1413H74.4558C74.4904 11.1413 74.517 11.1181 74.5436 11.0949L74.5437 11.0949C74.5556 11.0845 74.5675 11.0741 74.5801 11.0658C74.5869 11.0613 74.6097 11.0382 74.6474 11.0001C74.9764 10.6668 76.4403 9.18383 78.3016 8.91107C80.6561 8.57032 82.1006 9.85982 82.0104 10.9756C81.9911 11.2435 81.9209 11.5696 81.7993 11.9484C81.7705 12.0393 81.72 12.1423 81.6688 12.2469C81.4547 12.6834 81.2282 13.1454 82.5209 12.8511C83.5913 12.6099 84.5841 11.9584 85.5001 10.8981C85.942 10.3867 85.9184 10.1454 85.8914 9.87093C85.8725 9.67853 85.8521 9.4698 85.9892 9.14024C86.1752 8.69316 86.7447 8.7034 87.0427 8.70875C87.0871 8.70955 87.1256 8.71024 87.1558 8.70929C89.5353 8.63938 89.5313 8.71774 89.475 9.81239C89.4571 10.1614 89.4339 10.6137 89.4809 11.1974C89.4978 11.4035 89.4832 11.6364 89.4688 11.8662C89.4118 12.7755 89.3578 13.6354 91.2768 12.5885C92.5252 11.9084 93.4243 11.0251 94.2337 10.2299C95.4474 9.03752 96.4597 8.04306 98.1459 8.22824C98.8855 8.31042 99.2156 8.55428 98.8935 8.79214C98.876 8.80523 98.8215 8.82206 98.7408 8.84697C98.2943 8.98476 97.0471 9.36966 96.845 10.7351C96.7482 11.3872 97.0782 13.2446 98.2267 12.9479C98.8809 12.7802 99.2891 11.6812 99.0947 10.5988C99.0638 10.4253 98.9719 10.2302 98.8867 10.0492C98.7303 9.717 98.5963 9.43242 98.9029 9.41685L100.384 9.34869C101.273 9.30883 102.449 9.0676 103.505 8.85122C104.696 8.60695 105.732 8.39437 106.027 8.53892C106.196 8.62176 106.388 8.86497 106.61 9.26384C106.699 9.42616 106.786 9.66217 106.875 9.90269L106.875 9.90283C107.082 10.4622 107.298 11.046 107.568 10.7838L108.553 9.8331C109.694 8.73134 110.565 8.34516 111.175 8.67588C111.428 8.8122 111.709 9.2398 112.038 9.73874C112.775 10.8587 113.749 12.3381 115.165 11.6892C115.415 11.5736 115.692 11.3666 115.973 11.1565C116.562 10.7166 117.168 10.2633 117.587 10.6088C117.854 10.8279 117.677 11.3164 117.054 12.068C116.5 12.7368 115.638 13.4424 114.473 14.1813C113.819 14.5949 113.267 14.8087 112.817 14.8207C112.408 14.8334 112.096 14.7138 111.885 14.4686L109.655 11.8783C109.493 11.6912 109.37 11.6524 109.282 11.7613L108.485 12.7736C108.356 12.9392 106.846 14.6323 106.004 14.8187C105.426 14.948 105.172 14.506 104.96 14.1363L104.938 14.098C104.922 14.0703 104.906 14.0432 104.89 14.017C104.669 13.6012 104.459 13.1801 104.259 12.7542C103.948 12.1077 103.745 11.6147 103.592 11.2433L103.592 11.243C103.143 10.152 103.126 10.1108 102.074 10.3101C101.487 10.4213 101.564 10.6343 101.696 10.9975C101.775 11.2147 101.873 11.4857 101.86 11.8208C101.753 14.9169 97.8279 15.8436 95.5976 14.6637C94.425 14.0438 94.101 13.3248 93.9288 12.9428C93.8206 12.7028 93.7724 12.5958 93.6113 12.7301L92.587 13.586C90.9741 14.931 87.9769 15.2209 86.6941 14.627C85.9569 14.2865 85.902 13.5532 85.8672 13.0886C85.8479 12.8302 85.8347 12.6549 85.7139 12.6767C85.6297 12.6926 85.4644 12.8221 85.2213 13.0125C84.4955 13.581 83.0765 14.6924 81.055 14.9457L81.0185 14.9507C80.6052 15.008 78.4283 15.3103 76.8999 13.9562C76.507 13.6067 76.507 13.4337 76.9026 13.4363C77.0416 13.4381 77.1646 13.4538 77.2801 13.4686C77.6551 13.5165 77.9502 13.5542 78.454 13.0689C78.9123 12.6239 79.0646 12.0693 78.9096 11.4059C78.8067 10.9756 78.4566 10.8219 77.8566 10.9389C77.7003 10.9703 76.7923 11.3037 76.0039 12.2277C74.8801 13.5439 74.3476 15.4214 74.4077 17.8607C74.4133 18.0332 74.4081 18.2051 74.4028 18.3771V18.3772V18.3773L74.4028 18.3777C74.3987 18.5133 74.3945 18.6488 74.3957 18.7848C74.397 19.085 74.4121 19.3848 74.4271 19.6845V19.6847V19.6849C74.4422 19.9846 74.4572 20.2841 74.4585 20.584C74.4594 20.7338 74.4642 20.8725 74.4687 21.0003C74.4908 21.6366 74.5036 22.0051 73.9768 22.1308ZM16.1978 17.1224C14.5509 17.2995 12.9293 17.2922 11.3338 17.1017C7.50674 16.6735 4.52752 15.4655 2.3955 13.4771C-3.25558 8.20618 2.88926 0.321527 15.2805 0.778531C17.2922 0.85403 23.3409 1.51949 25.2491 4.41185C25.9965 5.54455 25.041 5.12253 24.5076 4.8869C24.4073 4.8426 24.3219 4.80489 24.2656 4.78534C22.3119 4.10785 20.4812 3.69227 18.7728 3.53659L18.6673 3.52677C17.8486 3.45018 17.8232 3.4478 17.8501 4.24214C17.9064 5.96237 17.8783 7.68361 17.8501 9.40486C17.8269 10.8284 17.8036 12.2519 17.8281 13.6749C17.8296 13.7595 17.8275 13.8357 17.8257 13.9039V13.904V13.9041C17.8121 14.4193 17.8106 14.4776 19.4182 14.2281C21.4162 13.9181 23.3749 13.3937 25.2604 12.664C25.3903 12.6139 25.5408 12.5443 25.6886 12.476L25.6887 12.476C26.2168 12.2319 26.7119 12.0031 26.121 12.7281C25.08 14.0043 22.9139 15.5209 19.8973 16.4343C18.9018 16.7356 17.6684 16.9654 16.1978 17.1224ZM9.56476 3.46828C9.34561 3.43688 9.13047 3.45759 8.92134 3.52908C6.09179 3.90658 3.11926 5.53482 2.59344 8.31226C2.54199 8.58419 2.49188 9.77881 2.98764 10.7944C3.90165 12.6658 6.06841 13.6253 7.13609 13.9359C7.9766 14.1805 9.58747 14.3896 9.74382 14.2887C9.81932 14.2406 9.85606 14.1564 9.8554 14.0375L9.88346 3.85313L9.88187 3.82973C9.86729 3.61321 9.86031 3.50958 9.56476 3.46828ZM86.9836 7.68262C87.4406 7.79687 89.2947 7.83361 89.5245 6.48064C89.7531 5.12967 87.4927 4.39072 86.2073 5.37421C85.4803 5.93077 85.2732 7.25635 86.9836 7.68262ZM114.851 7.66057C115.489 7.66057 116.017 7.13675 116.017 6.49066C116.007 6.18776 115.878 5.90095 115.66 5.69078C115.442 5.4806 115.15 5.3635 114.847 5.36419C114.544 5.36489 114.253 5.48332 114.035 5.69449C113.818 5.90567 113.691 6.19306 113.682 6.49601C113.682 7.13475 114.2 7.66057 114.851 7.66057ZM114.479 7.42419C114.598 7.47318 114.726 7.49813 114.855 7.4976C114.984 7.49743 115.112 7.47181 115.232 7.4222C115.351 7.3726 115.459 7.29998 115.55 7.2085C115.642 7.11702 115.714 7.00846 115.763 6.88903C115.813 6.7696 115.838 6.64164 115.838 6.51244C115.837 6.38324 115.812 6.25534 115.762 6.13605C115.713 6.01675 115.64 5.90839 115.549 5.81716C115.457 5.72593 115.349 5.6536 115.229 5.60432C115.11 5.55504 114.982 5.52977 114.852 5.52995C114.309 5.52995 113.872 5.96891 113.872 6.51812C113.872 6.64705 113.898 6.77474 113.947 6.89383C113.996 7.01293 114.069 7.12109 114.16 7.2121C114.252 7.30312 114.36 7.37519 114.479 7.42419ZM114.606 7.14397H114.335V5.81505H115.009C115.251 5.81505 115.402 5.9754 115.402 6.18185C115.405 6.25895 115.38 6.33455 115.333 6.3953C115.285 6.45605 115.218 6.49806 115.142 6.51391C115.228 6.52594 115.321 6.6001 115.355 6.74375C115.37 6.80988 115.369 6.87701 115.368 6.94405V6.94413C115.367 7.01118 115.366 7.07816 115.382 7.14397H115.128L115.125 7.13517C115.115 7.0952 115.11 7.07198 115.11 6.92348C115.11 6.70901 114.987 6.6128 114.87 6.6128H114.606V7.14397ZM114.605 6.43386V6.05035H114.942C115.057 6.05035 115.14 6.13988 115.14 6.24411C115.14 6.35101 115.053 6.43921 114.953 6.43787L114.605 6.43386Z" fill="black"/>
</svg>
