<svg width="118" height="35" viewBox="0 0 118 35" fill="none" xmlns="http://www.w3.org/2000/svg">
<path fill-rule="evenodd" clip-rule="evenodd" d="M117.77 26.9264V8.07427C111.462 6.92107 111.079 0.299194 111.08 0.299194H7.03781C7.03781 0.299194 6.65496 6.92107 0.346436 8.07427V26.9264C6.65496 28.0802 7.03781 34.7015 7.03781 34.7015H111.079C111.079 34.7015 111.462 28.0802 117.77 26.9264ZM117.099 8.72231V26.2836C111.105 27.38 110.372 33.8415 110.372 33.8415H7.75023C7.75023 33.8415 7.0547 27.3793 1.0622 26.2836V8.72231C7.0547 7.62656 7.75023 1.15969 7.75023 1.15969H110.372L110.372 1.15993C110.378 1.20592 111.127 7.63054 117.099 8.72231ZM115.79 25.2765V9.69359C110.196 8.67135 109.158 2.24389 109.158 2.24389H8.81256C8.81256 2.24389 8.03752 8.67068 2.44256 9.69359V25.2765C8.03752 26.2994 8.81256 32.7563 8.81256 32.7563H109.158C109.158 32.7563 110.196 26.2994 115.79 25.2765ZM26.5526 12.7997C26.2662 12.9765 25.9714 13.1585 25.6501 13.1207C24.378 12.6497 23.011 12.4139 21.6433 12.2254C17.6853 12.037 13.0912 12.4626 11.4656 16.3251C10.9946 17.8799 11.3247 19.3417 12.4084 20.4716C15.7537 23.4869 21.8384 23.7808 25.8379 21.8847C26.8274 21.3662 27.8169 20.3306 27.8637 19.152C27.8169 18.9643 27.6278 18.8701 27.4869 18.8219C27.0537 18.8564 26.9562 19.2409 26.8656 19.5978L26.8656 19.5978C26.8281 19.7457 26.7917 19.8889 26.7332 20.0005C26.0798 21.3562 23.9591 22.2395 22.2567 22.2147C20.2777 22.1205 18.2045 21.9314 17.074 20.1408C16.1319 18.681 16.3671 16.8429 16.7913 15.2414C17.3626 13.376 19.2888 12.9323 20.9378 12.7439C23.0585 12.6972 24.8958 13.3566 26.2622 14.9588C26.465 15.1558 26.5525 15.5064 26.6377 15.8482C26.7976 16.4892 26.9498 17.0993 27.841 16.6077V12.7907C27.3896 12.2829 26.9804 12.5356 26.5526 12.7997ZM82.7784 12.7996C82.4919 12.9765 82.197 13.1585 81.8757 13.1207C80.6036 12.6497 79.2372 12.4139 77.8702 12.2254C73.9129 12.037 69.3181 12.4626 67.6932 16.3251C67.2208 17.8799 67.5509 19.3417 68.6353 20.4716C71.9799 23.4869 78.0653 23.7808 82.0648 21.8847C83.0536 21.3662 84.0431 20.3306 84.0899 19.152C84.0431 18.9643 83.8554 18.8701 83.7131 18.8219C83.2805 18.8564 83.183 19.2407 83.0925 19.5975C83.055 19.7456 83.0186 19.8889 82.9601 20.0005C82.3066 21.3562 80.186 22.2395 78.4829 22.2147C76.5046 22.1205 74.4307 21.9314 73.2995 20.1408C72.3574 18.681 72.5933 16.8429 73.0176 15.2414C73.5888 13.376 75.515 12.9323 77.1633 12.7439C79.284 12.6972 81.1227 13.3566 82.489 14.9588C82.692 15.1559 82.7793 15.5067 82.8643 15.8486C83.0238 16.4894 83.1755 17.0992 84.0665 16.6077V12.7907C83.6155 12.2829 83.2063 12.5355 82.7784 12.7996ZM49.1631 19.2462C49.7478 18.3041 49.7872 17.008 49.3041 15.9951C47.9378 13.686 45.5465 12.8061 43.1312 12.5087C38.5137 12.1787 33.0952 11.8019 30.0324 15.7131C29.4866 16.5369 29.4084 17.7937 29.7498 18.7752C31.2144 22.3483 35.3374 22.6624 38.7495 22.9223L38.7496 22.9223C42.5626 23.0165 46.9015 22.6858 49.1631 19.2462ZM68.5595 22.218L68.5748 22.2274C68.6193 22.2271 68.6632 22.2369 68.7034 22.2561C68.7435 22.2752 68.7788 22.3032 68.8065 22.338C68.8342 22.3727 68.8537 22.4133 68.8635 22.4567C68.8733 22.5001 68.8731 22.5451 68.863 22.5884C68.8528 22.6317 68.833 22.6721 68.805 22.7066C68.777 22.7411 68.7415 22.7689 68.7012 22.7877C68.6609 22.8065 68.6169 22.816 68.5724 22.8153C68.528 22.8147 68.4843 22.804 68.4445 22.784H59.6833C59.6446 22.784 59.6062 22.7765 59.5704 22.7617C59.5346 22.7469 59.5021 22.7252 59.4747 22.6979C59.4474 22.6705 59.4257 22.638 59.4109 22.6022C59.3961 22.5664 59.3886 22.528 59.3886 22.4893L59.3906 22.4753C59.39 22.4228 59.4061 22.3715 59.4367 22.329C59.4585 22.2959 59.4867 22.2675 59.5196 22.2456C59.5526 22.2237 59.5896 22.2086 59.6285 22.2013C59.7949 22.1496 60.0356 22.1451 60.2831 22.1405C60.7033 22.1327 61.1434 22.1245 61.2741 21.884L59.2951 19.5756H53.1222C53.0063 19.7029 52.8591 19.8247 52.7085 19.9491C52.247 20.3306 51.7544 20.7379 52.0385 21.4129C52.4742 21.9464 53.158 22.0462 53.6682 22.1206C53.8309 22.1444 53.976 22.1655 54.0897 22.1973C54.1622 22.2023 54.2302 22.234 54.2808 22.2862L54.2848 22.2889L54.2854 22.2929C54.3237 22.335 54.349 22.3873 54.3581 22.4435C54.3672 22.4997 54.3598 22.5573 54.3368 22.6094C54.3139 22.6615 54.2762 22.7057 54.2286 22.7369C54.1809 22.768 54.1252 22.7846 54.0683 22.7846H48.4332C48.2709 22.7846 48.1386 22.653 48.1386 22.49C48.1388 22.4192 48.1649 22.351 48.2121 22.2982L48.2148 22.2942C48.2243 22.2835 48.2346 22.2735 48.2455 22.2642C48.3493 22.1721 48.5207 22.1277 48.7256 22.0746C48.9283 22.0221 49.1638 21.9612 49.3987 21.8372C50.1049 21.4651 50.8125 20.8009 50.8125 20.8009L58.5875 12.4138H59.106L66.833 21.602C67.2189 22.1666 67.7755 22.1724 68.1737 22.1766C68.3353 22.1783 68.4708 22.1797 68.5581 22.218H68.5595ZM103.272 13.9866C103.272 13.9866 103.202 13.3753 104.071 13.3753H104.83C104.909 13.3753 104.984 13.3442 105.039 13.289C105.094 13.2337 105.125 13.1588 105.125 13.0806C105.125 13.0025 105.094 12.9275 105.039 12.8723C104.984 12.817 104.909 12.786 104.83 12.786H96.702C96.6238 12.786 96.5489 12.817 96.4936 12.8723C96.4384 12.9275 96.4073 13.0025 96.4073 13.0806C96.4073 13.1588 96.4384 13.2337 96.4936 13.289C96.5489 13.3442 96.6238 13.3753 96.702 13.3753H97.4222C98.2908 13.3753 98.2206 13.9866 98.2206 13.9866V16.6973C98.2206 16.6973 98.2915 17.3086 97.4222 17.3086H93.2671C92.3985 17.3086 92.4687 16.6973 92.4687 16.6973V13.9866C92.4687 13.9866 92.3979 13.3753 93.2671 13.3753H94.1103C94.1884 13.3753 94.2634 13.3442 94.3186 13.289C94.3739 13.2337 94.4049 13.1588 94.4049 13.0806C94.4049 13.0025 94.3739 12.9275 94.3186 12.8723C94.2634 12.817 94.1884 12.786 94.1103 12.786H85.9817C85.9036 12.786 85.8287 12.817 85.7734 12.8723C85.7181 12.9275 85.6871 13.0025 85.6871 13.0806C85.6871 13.1588 85.7181 13.2337 85.7734 13.289C85.8287 13.3442 85.9036 13.3753 85.9817 13.3753H86.6004C87.469 13.3753 87.3989 13.9866 87.3989 13.9866V21.5599C87.3989 21.5599 87.4697 22.194 86.6004 22.194V22.1967H85.9817C85.9038 22.1967 85.829 22.2276 85.7739 22.2828C85.7187 22.3379 85.6878 22.4127 85.6878 22.4906C85.6878 22.5686 85.7187 22.6434 85.7739 22.6985C85.829 22.7537 85.9038 22.7846 85.9817 22.7846H94.1103C94.1882 22.7846 94.263 22.7537 94.3181 22.6985C94.3733 22.6434 94.4043 22.5686 94.4043 22.4906C94.4043 22.4127 94.3733 22.3379 94.3181 22.2828C94.263 22.2276 94.1882 22.1967 94.1103 22.1967H93.2671C92.3985 22.1967 92.4687 21.5927 92.4687 21.5927V18.882C92.4687 18.882 92.3979 18.27 93.2671 18.27H97.4222C98.2908 18.27 98.2206 18.882 98.2206 18.882V21.5927C98.2206 21.5927 98.2915 22.1967 97.4222 22.1967H96.702C96.624 22.1967 96.5492 22.2276 96.4941 22.2828C96.439 22.3379 96.408 22.4127 96.408 22.4906C96.408 22.5686 96.439 22.6434 96.4941 22.6985C96.5492 22.7537 96.624 22.7846 96.702 22.7846H104.83C104.908 22.7846 104.983 22.7537 105.038 22.6985C105.093 22.6434 105.124 22.5686 105.124 22.4906C105.124 22.4127 105.093 22.3379 105.038 22.2828C104.983 22.2276 104.908 22.1967 104.83 22.1967H104.071C103.202 22.1967 103.272 21.5847 103.272 21.5847V13.9866ZM44.1692 19.6228C44.6837 18.028 44.687 16.0416 43.7449 14.6285C42.708 13.0731 40.9642 12.7905 39.1275 12.8379C37.5761 12.8459 36.0641 13.7807 35.3579 15.147C34.6316 16.7325 34.6042 19.246 35.7347 20.8014C36.8658 22.0268 38.3264 22.3568 39.9286 22.3087C41.7192 22.2613 43.5098 21.366 44.1692 19.6228ZM53.9228 18.7743H58.4935L56.4196 16.1833H56.0902L53.9228 18.4924V18.7743Z" fill="black"/>
</svg>
