<svg width="130" height="43" viewBox="0 0 130 43" fill="none" xmlns="http://www.w3.org/2000/svg">
<path d="M47.1233 0.293457C44.0003 0.293457 41.5694 2.8209 41.5694 5.94935L41.6928 37.046C41.6928 40.1691 44.0807 42.7019 47.2146 42.7019H47.8585C50.9869 42.7019 53.5144 40.1691 53.5144 37.046L53.391 5.94935C53.391 2.8209 50.8582 0.293457 47.7297 0.293457H47.1233ZM63.6027 0.33102C60.5226 0.33102 58.0219 2.84236 58.0219 5.93325V34.0517C58.0219 38.2642 62.1699 42.3263 66.2911 42.3263H88.0669C91.1631 42.3263 93.2452 40.0725 94.9999 36.987L106.333 17.5509C106.43 17.3363 106.618 17.068 106.832 17.068C107.068 17.068 107.208 17.3363 107.326 17.5402L114.737 29.4315C115.048 29.9359 115.101 30.1881 114.908 30.6389C114.737 31.0521 114.323 31.1379 113.674 31.1379H103.269C100.167 31.1379 97.6669 33.6439 97.6669 36.7402V37.089C97.6669 40.1852 100.167 42.3263 103.269 42.3263H120.242C124.374 42.3263 129.032 38.3983 129.032 33.2576C129.032 30.0003 128.399 28.8466 125.683 24.4303L113.116 3.96389C111.64 1.59206 109.628 0.443708 107.09 0.443708C104.46 0.443708 102.239 1.67255 100.849 3.96389L86.296 28.09C85.3033 29.7427 84.1603 30.4189 82.2715 30.4189H71.4426C71.2407 30.4263 71.0394 30.3922 70.8512 30.3187C70.663 30.2451 70.4919 30.1337 70.3485 29.9913C70.2051 29.849 70.0925 29.6786 70.0177 29.491C69.9428 29.3033 69.9073 29.1022 69.9133 28.9003L69.924 5.93325C69.924 2.84236 67.4127 0.33102 64.3218 0.33102H63.6027ZM5.90613 1.09837C2.78305 1.09837 0.244873 3.49166 0.244873 6.61475V7.01184C0.244873 10.1457 2.78305 12.6731 5.90613 12.6731H32.388C35.5057 12.6731 38.0492 10.1457 38.0492 7.01184V6.65768C38.0465 5.91979 37.8974 5.18977 37.6106 4.50987C37.3239 3.82996 36.9052 3.21368 36.3787 2.69667C35.8522 2.17966 35.2284 1.77219 34.5434 1.49785C33.8584 1.2235 33.1258 1.08773 32.388 1.09837H5.90613ZM6.9096 16.2255C3.02453 16.2255 0.250239 19.2734 0.250239 22.8848L0.244873 37.1158C0.244873 40.2121 2.75085 42.7073 5.83638 42.7073H6.55544C7.29012 42.7087 8.01785 42.5651 8.69688 42.2846C9.37591 42.0041 9.99288 41.5922 10.5124 41.0727C11.0319 40.5532 11.4437 39.9363 11.7242 39.2572C12.0047 38.5782 12.1484 37.8505 12.1469 37.1158V29.292C12.1469 28.4495 12.8231 27.768 13.6656 27.768H29.6512C32.7368 27.768 35.2481 25.2728 35.2481 22.1765V21.8223C35.2481 18.7315 32.7368 16.2255 29.6512 16.2255H6.9096Z" fill="black"/>
</svg>
