<svg width="108" height="17" viewBox="0 0 108 17" fill="none" xmlns="http://www.w3.org/2000/svg">
<path fill-rule="evenodd" clip-rule="evenodd" d="M103.334 0.714306H107.104C106.687 1.03835 106.436 1.43522 106.436 1.97842V14.9609C106.436 15.5035 106.697 15.8903 107.104 16.2137H103.334C103.741 15.8903 103.991 15.4934 103.991 14.9609V1.97775C103.992 1.43455 103.752 1.03768 103.334 0.714306ZM15.9486 6.29123C15.3326 4.96498 14.6537 3.65944 13.5152 2.70936C12.3039 1.68577 10.7679 1.06976 9.18037 1.06976C4.9611 1.06976 3.07028 4.88146 3.07028 8.63104C3.07028 12.2557 4.87759 15.9211 8.95054 15.9211C10.6109 15.9211 12.2304 15.2008 13.2533 13.8946V10.9702C13.2533 10.1764 12.9921 9.66531 12.3761 9.19561H16.6895C16.2299 9.71742 15.9486 10.2499 15.9486 10.9702V13.8946C13.9742 15.7333 11.5202 16.8605 8.79419 16.8605C3.97961 16.8605 0.041626 13.32 0.041626 8.39051C0.041626 3.49241 3.92683 0.139709 8.67927 0.139709C11.6351 0.139709 14.0264 1.2261 15.9486 3.4089V6.29123V6.29123ZM26.5178 0.714306H30.5807C30.0268 1.1212 29.8391 1.58088 29.8391 2.2597V11.7332C29.8391 14.3329 32.8885 15.6077 35.124 15.6077C37.3175 15.6077 40.1792 14.3235 40.1792 11.7853V2.2597C40.1792 1.6223 40.0221 1.184 39.5945 0.714306H41.8087C41.3597 1.17398 41.1927 1.63299 41.1927 2.2597V11.7853C41.1927 15.2108 37.1512 16.5264 34.3517 16.5264C31.4694 16.5264 27.2601 15.2529 27.2601 11.7332V2.2597C27.2594 1.61228 26.9982 1.13189 26.5178 0.714306V0.714306ZM67.2079 6.34334C66.6654 4.975 66.028 3.77436 64.9102 2.78218C63.7095 1.71651 62.247 1.04837 60.6288 1.04837C56.4516 1.04837 54.3102 4.70374 54.3102 8.49541C54.3102 12.3071 56.5351 15.9104 60.6602 15.9104C63.7309 15.9104 65.9244 13.7483 67.2086 11.1472V13.9674C65.2984 15.8582 62.8329 16.819 60.1384 16.819C55.1454 16.819 51.4065 13.5919 51.4065 8.44329C51.4065 3.44096 54.9991 0.151072 59.8978 0.151072C62.6131 0.151072 65.2442 1.09113 67.2079 2.96057V6.34334V6.34334ZM93.4021 6.34334C92.8596 4.975 92.2208 3.77436 91.1044 2.78218C89.9037 1.71651 88.4412 1.04837 86.823 1.04837C82.6445 1.04837 80.5138 4.70374 80.5138 8.49541C80.5138 12.3071 82.728 15.9104 86.8544 15.9104C89.9251 15.9104 92.128 13.7483 93.4028 11.1472V13.9674C91.4912 15.8582 89.0365 16.819 86.3326 16.819C81.3396 16.819 77.6014 13.5919 77.6014 8.44329C77.6014 3.44096 81.1939 0.151072 86.0914 0.151072C88.8067 0.151072 91.4391 1.09113 93.4028 2.96057V6.34334H93.4021Z" fill="black"/>
</svg>
