<svg width="104" height="125" viewBox="0 0 104 125" fill="none" xmlns="http://www.w3.org/2000/svg">
<path fill-rule="evenodd" clip-rule="evenodd" d="M100.879 113.29H102.241V124.806L93.9145 116.09V124.377H92.5141V112.744L100.879 121.499V113.29ZM61.7411 113.29V120.331C61.7411 121.576 61.3904 122.587 60.6895 123.366C59.9512 124.222 58.9396 124.611 57.6555 124.611C56.4495 124.611 55.4386 124.222 54.6983 123.366C53.96 122.587 53.6086 121.576 53.6086 120.331V113.29H55.0103V119.864C55.0103 122.16 55.8662 123.328 57.6555 123.328C59.4835 123.328 60.3788 122.16 60.3788 119.864V113.29H61.7411ZM66.0205 113.29H72.6732V114.574H70.028V124.378H68.7051V114.574H66.0205V113.29V113.29ZM63.6086 113.29H65.009V124.378H63.6086V113.29ZM51.353 113.29H52.8703L48.0457 125L43.2218 113.29H44.7391L48.0464 121.499L51.353 113.29V113.29ZM89.9465 118.852C89.9465 120.097 89.5182 121.148 88.6242 122.043C87.8071 122.899 86.7568 123.327 85.5495 123.327C84.3435 123.327 83.2932 122.899 82.3992 122.043C81.5039 121.148 81.0763 120.097 81.0763 118.852C81.0763 117.608 81.4651 116.557 82.321 115.701C83.1769 114.807 84.2666 114.379 85.5495 114.379C86.8336 114.379 87.8839 114.807 88.7011 115.701C89.5189 116.557 89.9465 117.607 89.9465 118.852ZM89.6358 114.768C88.4692 113.639 87.1069 113.056 85.5501 113.056C83.9553 113.056 82.5943 113.639 81.4264 114.768C80.2986 115.895 79.7146 117.258 79.7146 118.852C79.7146 120.485 80.2993 121.848 81.4264 122.976C82.5549 124.065 83.9165 124.61 85.5501 124.61C87.1463 124.61 88.546 124.065 89.6358 122.976C90.7642 121.848 91.3475 120.485 91.3475 118.852C91.3482 117.258 90.7649 115.895 89.6358 114.768ZM79.4039 113.29V114.574H76.7969V124.378H75.3965V114.574H72.7513V113.29H79.4039ZM15.0539 115.701C15.871 116.557 16.2599 117.608 16.2599 118.852C16.2599 120.097 15.8316 121.148 14.9764 122.043C14.1205 122.899 13.0695 123.327 11.8635 123.327C10.6576 123.327 9.60724 122.899 8.71261 122.043C7.89548 121.148 7.42912 120.097 7.42912 118.852C7.42912 117.608 7.85673 116.557 8.67386 115.701C9.52974 114.807 10.5807 114.379 11.8642 114.379C13.1477 114.379 14.2374 114.807 15.0539 115.701ZM15.9492 114.768C14.7819 113.639 13.4203 113.056 11.8642 113.056C10.2687 113.056 8.86895 113.639 7.77922 114.768C6.61199 115.895 6.02871 117.258 6.02871 118.852C6.02871 120.485 6.61266 121.848 7.77922 122.976C8.86895 124.065 10.2306 124.61 11.8642 124.61C13.4985 124.61 14.8601 124.065 15.9492 122.976C17.1164 121.848 17.6609 120.485 17.6609 118.852C17.6609 117.258 17.1164 115.895 15.9492 114.768ZM20.1898 119.863C20.1898 122.159 21.0845 123.327 22.8744 123.327C24.6256 123.327 25.559 122.159 25.559 119.863V113.289H26.9206V120.33C26.9206 121.575 26.5705 122.587 25.8309 123.366C25.0919 124.222 24.0804 124.61 22.8744 124.61C21.6297 124.61 20.6569 124.222 19.9179 123.366C19.1395 122.587 18.7901 121.575 18.7901 120.33V113.289H20.1905V119.863H20.1898ZM2.52635 113.29V123.133H5.91112V124.377H1.16469V113.289H2.52635V113.29ZM35.8683 117.841C37.7357 118.579 38.631 119.669 38.631 121.148C38.631 122.159 38.2809 122.976 37.5807 123.638C36.9193 124.299 36.1021 124.611 35.1293 124.611C34.2347 124.611 33.4563 124.339 32.7955 123.716C32.1728 123.133 31.784 122.393 31.667 121.499L33.0675 121.187C33.0675 121.81 33.2619 122.315 33.6902 122.744C34.1184 123.133 34.5848 123.327 35.2075 123.327C35.7914 123.327 36.2578 123.093 36.6861 122.666C37.0362 122.277 37.2306 121.77 37.2306 121.148C37.2306 120.292 36.6079 119.593 35.3244 119.047L34.546 118.776C32.99 118.036 32.1728 117.103 32.1728 115.935C32.1728 115.079 32.5229 114.34 33.1456 113.833C33.8071 113.29 34.546 113.056 35.4413 113.056C36.7248 113.056 37.6589 113.639 38.2809 114.768L37.1919 115.39C36.7636 114.729 36.1803 114.379 35.4019 114.379C34.9349 114.379 34.4679 114.495 34.1178 114.768C33.7289 115.078 33.5338 115.468 33.5338 115.934C33.5338 116.596 34.0396 117.102 35.1287 117.491L35.8683 117.841V117.841ZM28.7881 113.29H30.1891V124.378H28.7881V113.29ZM83.4208 13.0574L56.5871 76.3905L49.1842 60.1462L62.8583 22.9277C63.8865 20.0494 67.4844 18.7125 73.5511 18.7125L75.7092 13.0574H43.8378L41.7813 18.7125C46.3052 18.7125 48.1559 20.0487 47.4357 22.9277L40.6508 41.8453L27.2854 13.0574C24.818 9.97325 26.0514 8.43053 30.884 8.43053V1.74851H0.0395508V8.43119C5.79754 8.43119 9.39544 9.97392 10.9382 13.058L33.5572 61.1751L22.9673 89.4486C22.7608 93.2522 16.7984 95.1043 5.28307 95.1043L3.12433 100.759H91.1317L103.367 74.7469H96.9919C91.0295 88.2152 84.141 95.1043 76.4301 95.1043H36.024L41.9871 79.168L47.1277 89.4486H58.643L91.1311 13.0587C92.6738 8.43186 96.6839 5.96511 102.955 5.96511V0H76.4294V5.96377C84.449 5.96377 86.7113 8.43119 83.4208 13.0574V13.0574Z" fill="black"/>
</svg>
