<svg width="102" height="37" viewBox="0 0 102 37" fill="none" xmlns="http://www.w3.org/2000/svg">
<path fill-rule="evenodd" clip-rule="evenodd" d="M13.4463 1.86293C6.84446 9.61597 0.51455 19.2304 0.451077 26.4169C0.426356 29.1208 1.28959 31.4813 3.36014 33.2693C6.34002 35.8443 9.62323 36.7523 12.8904 36.7576C17.6649 36.7643 22.406 34.8381 26.1181 33.3528C32.3699 30.8526 101.477 0.842021 101.477 0.842021C102.144 0.507954 102.019 0.0917083 101.184 0.299498C100.848 0.383683 25.9504 20.6809 25.9504 20.6809C24.5318 21.0822 23.0658 21.2921 21.5915 21.305C15.8355 21.3391 10.7136 18.144 10.7551 11.4112C10.7711 8.77679 11.5775 5.59981 13.4463 1.86293V1.86293Z" fill="black"/>
</svg>
