<svg width="125" height="75" viewBox="0 0 125 75" fill="none" xmlns="http://www.w3.org/2000/svg">
<path fill-rule="evenodd" clip-rule="evenodd" d="M124.951 0.879517H0V74.1205H124.951V0.879517ZM99.3239 60.5813C99.5364 60.3855 99.65 60.1243 99.65 59.8156C99.65 59.5376 99.5197 59.2938 99.2585 59.1134C99.0085 58.9249 98.7073 58.8168 98.3946 58.8033H97.1378L97.1224 62.2776H97.693L97.6777 60.9247H98.1173L98.3952 61.2995L99.1288 62.2616H99.6834L98.607 60.8919C98.8516 60.8919 99.0961 60.761 99.3239 60.5813ZM98.2803 60.483H97.693L97.6777 59.1782H98.2803C98.3076 59.1782 98.3298 59.1831 98.3497 59.1874C98.3659 59.191 98.3805 59.1942 98.3952 59.1942C98.5743 59.2109 98.754 59.2757 98.8676 59.3739C99.0153 59.4889 99.1128 59.6672 99.1128 59.8149C99.1128 60.01 99.0306 60.157 98.8676 60.2873C98.7353 60.4017 98.5697 60.4703 98.3952 60.483H98.2803ZM116.615 12.4936C116.109 11.6778 115.016 11.923 113.696 12.5591C111.982 13.2934 108.9 16.7189 108.149 18.6271C107.48 21.3678 105.914 23.896 103.369 26.62C100.809 28.7079 96.2572 27.8761 93.6321 26.2124C93.4691 26.2124 82.686 17.812 82.686 17.812C78.8209 14.7619 76.129 13.4403 72.8818 13.0488C72.7188 12.9513 72.5725 12.7882 72.5244 12.674C72.1057 11.7434 71.9665 11.6491 71.7281 11.4878C71.6782 11.454 71.6238 11.4172 71.5616 11.3691C71.1373 11.6952 70.8266 11.8749 70.4031 12.0052C70.2073 12.0052 70.1746 12.0052 70.061 11.9397C69.9745 11.9019 69.8862 11.8516 69.7967 11.8006C69.6159 11.6975 69.4302 11.5917 69.2452 11.5809C69.018 11.6266 68.8222 11.957 68.5752 12.3741C68.4678 12.5556 68.3506 12.7534 68.2169 12.9513C68.2169 12.9513 67.4666 13.604 66.7831 14.1746C66.6316 14.3065 66.5568 14.4817 66.4863 14.6471C66.4346 14.7683 66.3851 14.8841 66.3094 14.9737C66.1345 15.1646 65.944 15.4136 65.7871 15.6187L65.7871 15.6187C65.6222 15.8343 65.4944 16.0013 65.4609 16.0013C65.2978 16.4583 65.2324 16.8659 65.5263 17.0777C65.5263 17.4926 65.7022 17.6548 65.8192 17.7628C65.8448 17.7864 65.8676 17.8075 65.8851 17.828C65.9009 17.8598 65.9142 17.8878 65.9263 17.9133C65.9762 18.0184 66.0048 18.0788 66.0963 18.1707C66.2606 18.2392 66.4019 18.2732 66.5596 18.3112C66.5897 18.3185 66.6205 18.3259 66.6521 18.3338C67.6951 19.2959 68.1187 19.2798 69.326 19.1168C71.2831 19.2546 71.2484 19.8796 71.1957 20.8301L71.1956 20.8311C71.1921 20.8943 71.1885 20.959 71.1854 21.025C71.0868 21.1484 71.0441 21.1692 70.9657 21.2074C70.9405 21.2196 70.9117 21.2337 70.8761 21.2535C70.4106 21.2535 69.9332 21.2005 69.456 21.1476C68.9791 21.0946 68.5024 21.0417 68.0379 21.0417C65.998 21.2214 64.2368 21.5802 64.3999 24.043C64.5302 25.0051 66.2766 26.3427 67.19 24.532C67.3039 23.805 67.8537 23.9998 68.3937 24.1911C68.4715 24.2187 68.5491 24.2462 68.6251 24.2708C72.2792 25.853 75.1983 26.6687 77.1399 25.0211C77.6318 24.4061 77.9633 24.6727 78.413 25.0343C78.5002 25.1044 78.5918 25.1781 78.6899 25.2496C81.6264 28.7406 85.8343 31.0076 92.3099 31.0891C94.4633 31.6276 96.1109 32.5243 96.9267 34.6449C98.9324 39.7829 101.477 43.9267 105.213 46.0961C104.902 49.3419 105.032 52.0338 108.312 52.736C108.713 52.4104 108.668 52.0079 108.604 51.4324C108.53 50.7667 108.431 49.8695 108.965 48.5923C108.928 48.1188 108.726 47.6844 108.486 47.1686C108.188 46.529 107.831 45.7643 107.66 44.6449C104.939 42.4115 104.978 41.1157 105.019 39.799C105.035 39.2691 105.051 38.7358 104.887 38.1366C104.838 35.0866 104.17 32.7534 102.88 30.4377C102.734 30.0622 102.978 29.7849 103.321 29.5892C105.475 27.9743 106.649 26.3921 107.171 24.8588C107.97 22.1348 109.325 19.9981 111.249 18.4647C112.18 17.7204 113.084 17.268 114.015 16.8017C114.717 16.4505 115.434 16.0914 116.191 15.5937C117.284 13.7985 117.121 13.3094 116.615 12.4936ZM26.6381 37.1575H15.1869C14.339 37.1575 14.339 37.1575 14.339 37.7775V60.8589C14.3277 60.8476 14.3244 60.8522 14.3175 60.8618C14.3147 60.8658 14.3112 60.8707 14.3063 60.8756V60.8916C14.323 61.0219 14.47 61.3967 14.9591 61.3967H20.5053H20.5053C20.7832 61.3967 20.9177 61.3967 20.9827 61.3295C21.0438 61.2665 21.0438 61.1443 21.0438 60.9076V56.2588C21.0438 55.6234 21.0438 55.5245 21.6638 55.5245H26.6387C29.2812 55.4109 29.934 54.7902 29.934 51.7889V40.273C29.9326 37.712 29.2805 37.1575 26.6381 37.1575ZM23.2286 51.4796C23.1958 52.1972 22.658 52.556 22.1355 52.556C21.581 52.556 21.0424 52.1805 21.0424 51.4141V40.893C21.0424 40.1754 21.581 39.7999 22.1355 39.7999C22.6901 39.7999 23.2286 40.1754 23.2286 40.9418V51.4796ZM47.9903 37.712C47.9903 37.3059 47.9291 37.2932 47.6977 37.2452C47.613 37.2277 47.5057 37.2054 47.3703 37.1575H41.8896C41.2863 37.1575 41.2863 37.1575 41.2863 37.712L41.2702 56.814C41.2702 58.6894 39.1496 58.6407 39.1496 56.814V37.712C39.1496 37.1575 39.1496 37.1575 38.595 37.1575H32.8698C32.201 37.1575 32.201 37.1575 32.201 37.712V57.9224C32.201 60.9076 32.8698 61.3967 34.6964 61.3967H45.2991C47.371 61.3967 48.0558 60.8422 47.9903 58.1015V37.712ZM71.8715 37.1575H52.9813C50.7303 37.1575 50.0615 37.712 50.0615 39.9142V60.9076C50.0615 61.3967 50.0615 61.3967 50.7303 61.3967H56.032H56.032C56.4486 61.3967 56.6288 61.3967 56.7068 61.3074C56.7663 61.2393 56.7663 61.1193 56.7663 60.9076V41.1375C56.7663 39.4084 58.8863 39.2293 58.8863 41.1375V60.9076C58.8863 61.3967 58.8863 61.3967 59.686 61.3967H64.971C65.3054 61.3967 65.4595 61.3967 65.5304 61.3199C65.591 61.2544 65.591 61.1329 65.591 60.9076V41.1375C65.591 39.5066 67.7116 39.4084 67.7116 41.1375V60.9076C67.7116 61.1268 67.7116 61.2478 67.7718 61.3145C67.8459 61.3967 68.0111 61.3967 68.3798 61.3967H73.8124C74.1347 61.3967 74.2846 61.3967 74.3544 61.3219C74.415 61.2569 74.415 61.1352 74.415 60.9076V39.7839C74.415 37.712 73.7469 37.1575 71.8715 37.1575ZM90.2051 37.1575H79.4889C77.7103 37.1575 76.9767 37.712 76.9767 39.7999V60.9076C76.9767 61.1193 76.9767 61.2394 77.0362 61.3075C77.1141 61.3967 77.2942 61.3967 77.7103 61.3967H83.0126C83.3822 61.3967 83.5478 61.3967 83.6219 61.3144C83.6821 61.2476 83.6821 61.1267 83.6821 60.9076V56.194C83.7476 55.459 84.2366 55.0842 84.7417 55.0675C85.2809 55.0514 85.8181 55.443 85.8181 56.2581V60.907C85.8181 61.396 85.8181 61.3961 86.4876 61.3961H91.9843C92.5235 61.3961 92.5235 61.396 92.5235 60.907V39.7839C92.5228 37.712 91.9683 37.1575 90.2051 37.1575ZM85.8174 51.4796C85.8174 52.1324 85.2796 52.4584 84.7411 52.4417C84.2193 52.4417 83.6814 52.1163 83.6814 51.4796V41.1375C83.6814 40.42 84.2193 40.0772 84.7411 40.0772C85.2803 40.0932 85.8174 40.4527 85.8174 41.1375V51.4796ZM98.3951 57.6124H98.3456C96.7642 57.6124 95.4593 58.9173 95.4593 60.5328C95.4593 62.1143 96.7642 63.4198 98.3456 63.4198H98.3951C99.1578 63.4151 99.8877 63.1089 100.426 62.568C100.963 62.0272 101.266 61.2956 101.266 60.5328C101.267 59.7666 100.966 59.0309 100.429 58.4845C99.8917 57.9381 99.1612 57.6249 98.3951 57.6124ZM100.679 60.778C100.498 62.0007 99.5369 62.8172 98.3951 62.8332C98.0844 62.8332 97.775 62.7838 97.4644 62.6702C96.5029 62.1971 95.9637 61.3814 96.0459 60.3043C96.225 58.9995 97.2853 58.1837 98.3951 58.2004C99.0305 58.2004 99.6672 58.4616 100.157 59.0489C100.548 59.6028 100.711 60.0765 100.679 60.778Z" fill="black"/>
</svg>
