<svg width="126" height="83" viewBox="0 0 126 83" fill="none" xmlns="http://www.w3.org/2000/svg">
<path fill-rule="evenodd" clip-rule="evenodd" d="M125.848 20.8079V0.534729H0.858314V20.8079H125.848ZM16.8982 7.40314H13.6985V15.3773H13.0357V7.40314H9.83604V6.8526H16.8982V7.40314ZM40.9591 11.1146C40.9591 13.2393 39.3095 14.8769 37.1721 14.8769C35.0347 14.8769 33.3597 13.2393 33.3597 11.1146C33.3597 8.98996 35.0341 7.35303 37.1721 7.35303C39.3088 7.35303 40.9591 8.98996 40.9591 11.1146ZM41.6713 11.1146C41.6713 8.66458 39.6836 6.74035 37.1474 6.74035C34.6225 6.74035 32.6475 8.66525 32.6475 11.1146C32.6475 13.564 34.6225 15.4889 37.1474 15.4889C39.6836 15.4896 41.6713 13.5647 41.6713 11.1146ZM66.4197 6.8526H67.0825V15.3773H66.4197V7.81471H66.395L63.1699 11.8021L59.9455 7.81471H59.9201V15.3773H59.2573V6.8526H59.9201L63.1699 10.8153L66.4197 6.8526ZM92.179 6.8526H92.8418V15.3773H92.179V7.81471H92.1543L88.9298 11.8021L85.7054 7.81471H85.6807V15.3773H85.0179V6.8526H85.6807L88.9298 10.8153L92.179 6.8526ZM113.79 10.8026V15.3773H113.128V10.8026L109.816 6.8526H110.615L113.466 10.2273L116.303 6.8526H117.102L113.79 10.8026ZM16.9459 76.6575H16.2837V72.62H10.5966V76.6575H9.93445V68.1335H10.5966V72.0708H16.2837V68.1335H16.9459V76.6575ZM28.1324 76.6575H27.4703V68.1335H28.1324V76.6575ZM39.307 76.107H43.5189V76.6575H38.6442V68.1335H39.307V76.107ZM57.4428 68.6827H53.718V71.9205H57.0807V72.4697H53.718V76.6575H53.0559V68.1335H57.4428V68.6827ZM67.7548 76.6575H67.0914V68.1335H67.7548V76.6575ZM85.4029 69.4958C84.3653 68.9085 83.4026 68.6332 82.3783 68.6332C80.2162 68.6332 78.616 70.2334 78.616 72.3955C78.616 74.307 79.8781 76.1578 82.5647 76.1578C83.5529 76.1578 84.2284 75.97 84.9032 75.6333V73.3329H83.1026V72.7837H85.5653V76.0462C84.5524 76.5333 83.5282 76.7704 82.5407 76.7704C79.8915 76.7704 77.9045 74.8963 77.9045 72.3714C77.9045 69.8713 79.8421 68.0219 82.4799 68.0219C83.4413 68.0219 84.2036 68.2083 85.4043 68.7461V69.4958H85.4029ZM100.476 68.6827H96.4893V72.0955H100.376V72.6447H96.4893V76.107H100.577V76.6575H95.8265V68.1335H100.476V68.6827ZM111.162 68.6827H112.549C114.113 68.6827 114.799 69.3835 114.799 70.345C114.799 71.3706 114.075 72.0207 112.574 72.0207H111.162V68.6827ZM110.501 68.1341V76.6575H111.162V72.5705H112.312C113.338 72.5705 113.662 72.7075 114.687 74.3204L116.175 76.6575H116.95L115.025 73.7084C114.624 73.1084 114.287 72.62 113.888 72.4089C114.975 72.008 115.512 71.3205 115.512 70.3343C115.512 69.1965 114.775 68.1341 112.688 68.1341H110.501ZM0.932671 62.1924V62.1922H0.848633V82.4654H125.838V62.1922H63.0558V62.1924H0.932671Z" fill="black"/>
</svg>
